<svg width="2350" height="684" xmlns="http://www.w3.org/2000/svg"><defs><linearGradient x1="0%" y1="50%" x2="91.961%" y2="80.719%" id="a"><stop stop-color="#135CFF" offset="0%"/><stop stop-color="#467FFF" stop-opacity="0" offset="100%"/></linearGradient><linearGradient x1="50%" y1="0%" x2="50%" y2="100%" id="b"><stop stop-color="#135CFF" offset="0%"/><stop stop-color="#467FFF" stop-opacity="0" offset="100%"/></linearGradient><linearGradient x1="55.417%" y1="103.438%" x2="42.355%" y2="34.752%" id="c"><stop stop-color="#467FFF" stop-opacity=".32" offset="0%"/><stop stop-color="#467FFF" stop-opacity="0" offset="100%"/></linearGradient><linearGradient x1="0%" y1="50%" y2="50%" id="d"><stop stop-color="#29D2D3" offset="0%"/><stop stop-color="#29D2D3" stop-opacity="0" offset="100%"/></linearGradient><linearGradient x1="50%" y1="100%" x2="50%" y2="0%" id="e"><stop stop-color="#29D2D3" offset="0%"/><stop stop-color="#29D2D3" stop-opacity="0" offset="100%"/></linearGradient><linearGradient x1="50%" y1="0%" x2="50%" y2="100%" id="f"><stop stop-color="#FFF" offset="0%"/><stop stop-color="#467FFF" stop-opacity="0" offset="100%"/></linearGradient></defs><g fill="none" fill-rule="evenodd"><path d="M1812.929 608.24c165.685 34.74 300-69.459 300-234.825 0-165.366-134.315-269.564-300-234.825-165.685 32.429-300 136.626-300 234.825 0 98.198 134.315 202.396 300 234.825z" fill="url(#a)" transform="rotate(37 2328.477 200.915)"/><path d="M1721.444 819.421c51.94 160.858 168.378 225.078 275.734 142.395 116.66-82.683 155.597-251.102 70.047-377.22-94.804-127.273-245.386-191.494-325.112-142.395-76.445 49.1-80.895 217.518-20.669 377.22z" fill="url(#b)" transform="rotate(69 2147.75 539.312)"/><path d="M356.453 1074.076c153.535 32.194 278-64.367 278-217.614 0-153.246-124.465-249.807-278-217.614-153.535 30.052-278 126.613-278 217.614 0 91.002 124.465 187.563 278 217.614z" fill="url(#c)" transform="rotate(-144 300.404 683.962)"/><path d="M1892.44 465.253c65.721 9.335 119-33.974 119-96.735 0-62.76-53.279-106.07-119-96.734-65.723 9.336-119 52.645-119 96.734 0 44.09 53.277 87.4 119 96.735z" fill-opacity=".64" fill="url(#d)" transform="rotate(-121 1794.844 196.018)"/><path d="M478.645 719.112c60.751 15.234 110-46.411 110-137.688 0-91.276-49.249-152.921-110-137.688-60.752 15.234-110 76.879-110 137.688 0 60.81 49.248 122.454 110 137.688z" fill-opacity=".64" fill="url(#d)" transform="rotate(-48 91.203 408.924)"/><path d="M1821.176 731.149c110.457 23.16 200-46.306 200-156.55 0-110.245-89.543-179.71-200-156.55-110.457 21.619-200 91.084-200 156.55 0 65.465 89.543 134.93 200 156.55z" fill="url(#e)" transform="rotate(-35 1274.076 402.099)"/><path d="M1639.871 467.101c7.595 2.365 14.731 6.175 20.96 11.125a65.293 65.293 0 0 1 15.59 17.904c4.038 6.85 6.833 14.446 8.085 22.31a66.11 66.11 0 0 1-.502 23.759c-1.606 7.805-4.723 15.288-9.068 21.978a65.483 65.483 0 0 1-16.404 17.278c-6.466 4.695-13.798 8.217-21.54 10.245-7.738 2.036-15.863 2.618-23.832 1.775-7.974-.828-15.766-3.216-22.88-6.9a65.623 65.623 0 0 1-18.869-14.696c-5.323-5.996-9.544-12.972-12.336-20.49-2.791-7.518-4.148-15.552-4.047-23.58a64.292 64.292 0 0 1 4.694-23.473 65.51 65.51 0 0 1 12.896-20.205 65.781 65.781 0 0 1 19.315-14.258 65.518 65.518 0 0 1 23.184-6.294c1.76-.166 3.083-.286 3.968-.463.883-.18 1.33-.4 1.33-.61 0-.21-.449-.407-1.355-.543-.906-.14-2.271-.232-4.078-.072a68.071 68.071 0 0 0-23.78 6.241 68.623 68.623 0 0 0-20.06 14.39 68.44 68.44 0 0 0-13.716 20.672 68.181 68.181 0 0 0-3.831 11.91 68.966 68.966 0 0 0-1.554 12.454c-.289 8.385.937 16.86 3.706 24.853a69.17 69.17 0 0 0 12.572 21.977 69.839 69.839 0 0 0 19.778 16.118c7.533 4.114 15.87 6.857 24.452 7.926 8.575 1.082 17.374.626 25.83-1.44 8.456-2.057 16.52-5.763 23.658-10.79a71.015 71.015 0 0 0 18.204-18.69c4.853-7.29 8.354-15.506 10.195-24.094a71.864 71.864 0 0 0 .676-26.178c-1.364-8.682-4.439-17.086-8.919-24.63a70.893 70.893 0 0 0-17.262-19.635c-6.89-5.395-14.779-9.501-23.135-11.985-6.81-1.988-12.272-2.198-15.87-1.857-1.807.146-3.17.487-4.085.838-.915.35-1.385.73-1.424 1.118-.038.388.355.784 1.166 1.164.809.394 2.04.703 3.674 1.144 3.27.807 8.18 1.749 14.614 3.704" fill-opacity=".48" fill="url(#f)" transform="translate(0 -345)"/><path d="M486.703 634.933c7.595 2.364 14.73 6.175 20.96 11.125a65.293 65.293 0 0 1 15.589 17.903c4.038 6.851 6.834 14.446 8.085 22.31a66.11 66.11 0 0 1-.502 23.76c-1.605 7.804-4.722 15.288-9.067 21.978a65.483 65.483 0 0 1-16.404 17.278c-6.466 4.695-13.798 8.217-21.54 10.245-7.739 2.035-15.863 2.617-23.832 1.774-7.974-.827-15.767-3.215-22.881-6.899a65.623 65.623 0 0 1-18.868-14.696c-5.323-5.996-9.544-12.973-12.336-20.49-2.792-7.518-4.149-15.552-4.047-23.58a64.292 64.292 0 0 1 4.693-23.474 65.51 65.51 0 0 1 12.897-20.204 65.78 65.78 0 0 1 19.314-14.258 65.518 65.518 0 0 1 23.185-6.294c1.76-.167 3.083-.287 3.967-.463.884-.18 1.33-.401 1.33-.61 0-.21-.448-.408-1.354-.544-.906-.139-2.272-.231-4.079-.071a68.071 68.071 0 0 0-23.779 6.24 68.623 68.623 0 0 0-20.061 14.391 68.44 68.44 0 0 0-13.715 20.671 68.182 68.182 0 0 0-3.831 11.91 68.966 68.966 0 0 0-1.554 12.455c-.289 8.384.937 16.859 3.706 24.853a69.17 69.17 0 0 0 12.572 21.977 69.839 69.839 0 0 0 19.777 16.117c7.534 4.115 15.87 6.858 24.453 7.927 8.575 1.082 17.373.626 25.829-1.44 8.456-2.057 16.52-5.763 23.659-10.79a71.015 71.015 0 0 0 18.203-18.69c4.853-7.29 8.354-15.506 10.195-24.094a71.864 71.864 0 0 0 .677-26.179c-1.365-8.68-4.439-17.085-8.92-24.63a70.893 70.893 0 0 0-17.261-19.635c-6.891-5.394-14.78-9.5-23.136-11.985-6.81-1.987-12.27-2.197-15.87-1.856-1.807.145-3.169.487-4.084.837-.916.35-1.386.73-1.424 1.119-.038.388.355.784 1.165 1.164.81.394 2.04.703 3.675 1.144 3.27.806 8.179 1.748 14.614 3.704" fill-opacity=".48" fill="url(#f)" transform="rotate(147 519.928 524.332)"/></g></svg>