<svg width="1440" height="457" xmlns="http://www.w3.org/2000/svg"><defs><linearGradient x1="50%" y1="100%" x2="50%" y2="0%" id="a"><stop stop-color="#467FFF" offset="0%"/><stop stop-color="#467FFF" stop-opacity="0" offset="100%"/></linearGradient><linearGradient x1="100%" y1="50%" x2="0%" y2="50%" id="b"><stop stop-color="#79A2FF" offset="0%"/><stop stop-color="#467FFF" stop-opacity="0" offset="100%"/></linearGradient><linearGradient x1="50%" y1="100%" x2="50%" y2="0%" id="c"><stop stop-color="#29D2D3" stop-opacity=".48" offset="0%"/><stop stop-color="#29D2D3" stop-opacity="0" offset="100%"/></linearGradient></defs><g fill="none" fill-rule="evenodd"><path d="M393.871 389.93c7.595 2.365 14.731 6.175 20.96 11.126a65.293 65.293 0 0 1 15.59 17.903c4.038 6.85 6.833 14.446 8.085 22.31a66.11 66.11 0 0 1-.502 23.76c-1.606 7.804-4.723 15.287-9.068 21.977a65.483 65.483 0 0 1-16.404 17.278c-6.466 4.695-13.798 8.217-21.54 10.246-7.738 2.035-15.863 2.617-23.832 1.774-7.974-.828-15.766-3.216-22.88-6.9a65.623 65.623 0 0 1-18.869-14.696c-5.323-5.995-9.544-12.972-12.336-20.49-2.791-7.517-4.148-15.552-4.047-23.58a64.292 64.292 0 0 1 4.694-23.473 65.51 65.51 0 0 1 12.896-20.205 65.78 65.78 0 0 1 19.315-14.257 65.518 65.518 0 0 1 23.184-6.295c1.76-.166 3.083-.286 3.968-.463.883-.18 1.33-.4 1.33-.61 0-.21-.449-.407-1.355-.543-.906-.14-2.271-.232-4.078-.072a68.071 68.071 0 0 0-23.78 6.241 68.623 68.623 0 0 0-20.06 14.39 68.44 68.44 0 0 0-13.716 20.672 68.182 68.182 0 0 0-3.831 11.91 68.966 68.966 0 0 0-1.554 12.454c-.289 8.385.937 16.86 3.706 24.853a69.17 69.17 0 0 0 12.572 21.977 69.839 69.839 0 0 0 19.778 16.118c7.533 4.114 15.87 6.857 24.452 7.926 8.575 1.083 17.374.626 25.83-1.44 8.456-2.057 16.52-5.763 23.658-10.79a71.015 71.015 0 0 0 18.204-18.69c4.853-7.29 8.354-15.506 10.195-24.094a71.864 71.864 0 0 0 .676-26.178c-1.364-8.681-4.439-17.085-8.919-24.63a70.893 70.893 0 0 0-17.262-19.635c-6.89-5.395-14.779-9.5-23.135-11.985-6.81-1.988-12.272-2.197-15.87-1.856-1.807.145-3.17.487-4.085.837s-1.385.73-1.424 1.118c-.038.388.355.784 1.166 1.165.809.393 2.04.703 3.674 1.143 3.27.807 8.18 1.749 14.614 3.705" fill-opacity=".48" fill="url(#a)" transform="rotate(156 384.043 412.563)"/><path d="M721.029 512.937c138.071 28.95 250-57.882 250-195.687s-111.929-224.637-250-195.687c-138.071 27.023-250 113.855-250 195.687 0 81.832 111.929 168.664 250 195.687z" fill="url(#b)" transform="rotate(-138 705.69 278.157)"/><path d="M706.937 513.01c91.68 19.276 166-38.54 166-130.296s-74.32-149.572-166-130.296c-91.68 17.994-166 75.81-166 130.296 0 54.487 74.32 112.303 166 130.297z" fill="url(#c)" transform="rotate(-59 637.353 344.022)"/><path d="M544.032 436.45c7.82-6.71 14.18-17.161 14.208-23.342.028-6.182-6.295-4.261-14.122 4.289-7.828 8.55-14.19 19-14.209 23.343-.02 4.342 6.304 2.422 14.123-4.29z" fill-opacity=".48" fill="#29D2D3"/><path d="M826.703 431.54c2.462.9 4.57 2.716 5.814 5.006 1.255 2.284 1.582 5.034.984 7.565a10.727 10.727 0 0 1-4.342 6.344c-2.168 1.515-4.904 2.189-7.564 1.896-2.658-.265-5.19-1.581-6.981-3.569a11.012 11.012 0 0 1-2.852-7.326c-.031-2.698 1.011-5.382 2.835-7.419 1.816-2.045 4.411-3.41 7.18-3.748 1.561-.11 1.643-1.016-.1-.962a12.815 12.815 0 0 0-8.08 3.819c-2.14 2.183-3.478 5.184-3.586 8.3a12.907 12.907 0 0 0 2.975 8.739c2.028 2.463 5.028 4.201 8.288 4.663 3.244.492 6.71-.214 9.513-2.041 2.816-1.798 4.92-4.692 5.766-7.95.853-3.244.49-6.828-1.124-9.837-1.59-3.01-4.34-5.4-7.582-6.562-1.565-.577-2.868-.525-3.683-.299-.828.262-1.199.653-1.199 1.063.023.892 1.395 1.456 3.738 2.317" fill-opacity=".72" fill="#467FFF"/></g></svg>