<svg width="1056" height="792" xmlns="http://www.w3.org/2000/svg"><defs><linearGradient x1="0%" y1="50%" y2="50%" id="a"><stop stop-color="#29D2D3" offset="0%"/><stop stop-color="#29D2D3" stop-opacity="0" offset="100%"/></linearGradient><linearGradient x1="91.961%" y1="80.719%" x2="0%" y2="50%" id="b"><stop stop-color="#135CFF" offset="0%"/><stop stop-color="#467FFF" stop-opacity="0" offset="100%"/></linearGradient></defs><g fill="none" fill-rule="evenodd"><path d="M295 674.738c60.751 15.233 110-46.412 110-137.688 0-91.277-49.249-152.922-110-137.688-60.751 15.234-110 76.879-110 137.688 0 60.81 49.249 122.454 110 137.688z" fill-opacity=".64" fill="url(#a)" transform="rotate(-48 294.12 537.136)"/><path d="M328.872 541.973c75.663 15.752 137-31.493 137-106.473s-61.337-122.225-137-106.473c-75.663 14.703-137 61.948-137 106.473s61.337 91.77 137 106.473z" fill="url(#b)" transform="rotate(47 329.414 434.779)"/><path d="M461.43 642.19c-5.095-8.955-14.14-17.194-20.203-18.4-6.062-1.207-5.383 5.366 1.516 14.68 6.9 9.316 15.945 17.554 20.203 18.402 4.259.848 3.58-5.725-1.515-14.681z" fill-opacity=".48" fill="#29D2D3"/></g></svg>