<svg width="1792" height="1008" xmlns="http://www.w3.org/2000/svg"><defs><linearGradient x1="100%" y1="50%" x2="0%" y2="50%" id="a"><stop stop-color="#467FFF" offset="0%"/><stop stop-color="#467FFF" stop-opacity="0" offset="100%"/></linearGradient><linearGradient x1="0%" y1="50%" y2="50%" id="b"><stop stop-color="#29D2D3" offset="0%"/><stop stop-color="#29D2D3" stop-opacity="0" offset="100%"/></linearGradient><linearGradient x1="100%" y1="0%" x2="0%" y2="100%" id="c"><stop stop-color="#F6F7FF" stop-opacity="0" offset="0%"/><stop stop-color="#DEE1F7" offset="100%"/></linearGradient><linearGradient x1="50%" y1="100%" x2="50%" y2="0%" id="d"><stop stop-color="#467FFF" offset="0%"/><stop stop-color="#467FFF" stop-opacity="0" offset="100%"/></linearGradient></defs><g fill="none" fill-rule="evenodd"><path d="M997.008 777.195c65.9 0 134.774-53.278 153.831-119 19.058-65.722-49.815-119-153.831-119-104.017 0-172.89 53.278-153.832 119 19.058 65.722 87.93 119 153.832 119z" fill="url(#a)" transform="rotate(-151 997.008 658.195)"/><path d="M864.602 819.614c117.322-24.404 198.442-71.672 181.186-105.576-17.257-33.903-98.376-81.172-181.186-105.576-82.81-24.405-163.93 22.863-181.186 105.576-17.257 82.713 63.863 129.981 181.186 105.576z" fill="url(#b)" transform="rotate(-28 864.602 714.038)"/><path d="M976.43 842.19c-5.095-8.955-14.14-17.194-20.203-18.4-6.062-1.207-5.383 5.366 1.516 14.68 6.9 9.316 15.945 17.554 20.203 18.402 4.259.848 3.58-5.725-1.515-14.681z" fill-opacity=".48" fill="#29D2D3"/><path d="M1313.174 432.588c-112.34-83.237-244.184-62.667-308.297 26.592-72.569 80.791-39.777 181.156 89.05 246.752 137.706 80.165 300.588 108.87 353.181 45.416 49.611-68.255-14.53-219.427-133.934-318.76z" fill="url(#c)"/><path d="M1069.291 703.521c7.595 2.365 14.731 6.175 20.96 11.125a65.293 65.293 0 0 1 15.589 17.903c4.038 6.851 6.834 14.446 8.085 22.31a66.11 66.11 0 0 1-.502 23.76c-1.605 7.804-4.722 15.288-9.067 21.978a65.483 65.483 0 0 1-16.404 17.278c-6.466 4.695-13.798 8.217-21.54 10.245-7.739 2.035-15.863 2.617-23.832 1.774-7.974-.827-15.767-3.215-22.881-6.899a65.623 65.623 0 0 1-18.868-14.696c-5.323-5.996-9.544-12.973-12.336-20.49-2.792-7.518-4.149-15.552-4.047-23.58a64.292 64.292 0 0 1 4.693-23.474 65.51 65.51 0 0 1 12.897-20.204 65.78 65.78 0 0 1 19.315-14.258 65.518 65.518 0 0 1 23.184-6.294c1.76-.166 3.083-.287 3.967-.463.884-.18 1.33-.401 1.33-.61 0-.21-.448-.408-1.354-.544-.906-.139-2.272-.231-4.079-.071a68.071 68.071 0 0 0-23.779 6.24 68.623 68.623 0 0 0-20.06 14.391 68.44 68.44 0 0 0-13.716 20.671 68.182 68.182 0 0 0-3.831 11.91 68.966 68.966 0 0 0-1.554 12.455c-.289 8.384.937 16.859 3.706 24.853a69.17 69.17 0 0 0 12.572 21.977 69.839 69.839 0 0 0 19.777 16.117c7.534 4.115 15.87 6.858 24.453 7.927 8.575 1.082 17.373.626 25.829-1.44 8.456-2.057 16.52-5.763 23.659-10.79a71.015 71.015 0 0 0 18.203-18.69c4.853-7.29 8.354-15.506 10.195-24.094a71.865 71.865 0 0 0 .677-26.178c-1.365-8.682-4.439-17.086-8.919-24.63a70.893 70.893 0 0 0-17.262-19.636c-6.891-5.394-14.78-9.5-23.136-11.985-6.81-1.987-12.27-2.197-15.87-1.856-1.807.145-3.169.487-4.084.837-.916.35-1.386.731-1.424 1.119-.038.388.355.784 1.166 1.164.809.394 2.04.703 3.674 1.144 3.27.807 8.179 1.748 14.614 3.704" fill-opacity=".48" fill="url(#d)" transform="rotate(156 1051.42 765.42)"/><path d="M641.28 781.097c1.367.534 2.538 1.61 3.23 2.967.697 1.354.878 2.983.546 4.483-.328 1.5-1.2 2.873-2.412 3.76a5.91 5.91 0 0 1-4.202 1.123c-1.477-.157-2.884-.937-3.879-2.115-1.005-1.174-1.577-2.742-1.584-4.341a6.8 6.8 0 0 1 1.575-4.396c1.009-1.212 2.45-2.021 3.989-2.222.867-.064.912-.601-.056-.57-1.677.147-3.305.96-4.489 2.263-1.188 1.294-1.932 3.072-1.992 4.919-.073 1.84.513 3.725 1.653 5.179 1.127 1.46 2.793 2.49 4.605 2.763a7.287 7.287 0 0 0 5.284-1.21c1.565-1.065 2.733-2.78 3.204-4.71.473-1.923.272-4.047-.625-5.83-.883-1.783-2.41-3.2-4.212-3.889-.87-.341-1.593-.31-2.046-.177-.46.155-.666.387-.666.63.013.529.775.863 2.076 1.373" fill-opacity=".32" fill="#29D2D3"/><path d="M674.703 821.54c2.462.9 4.57 2.716 5.814 5.006 1.255 2.284 1.582 5.034.984 7.565a10.727 10.727 0 0 1-4.342 6.344c-2.168 1.515-4.904 2.189-7.564 1.896-2.658-.265-5.19-1.581-6.981-3.569a11.012 11.012 0 0 1-2.852-7.326c-.031-2.698 1.011-5.382 2.835-7.419 1.816-2.045 4.411-3.41 7.18-3.748 1.561-.11 1.643-1.016-.1-.962a12.815 12.815 0 0 0-8.08 3.819c-2.14 2.183-3.478 5.184-3.586 8.3a12.907 12.907 0 0 0 2.975 8.739c2.028 2.463 5.028 4.201 8.288 4.663 3.244.492 6.71-.214 9.513-2.041 2.816-1.798 4.92-4.692 5.766-7.95.853-3.244.49-6.828-1.124-9.837-1.59-3.01-4.34-5.4-7.582-6.562-1.565-.577-2.868-.525-3.683-.299-.828.262-1.199.653-1.199 1.063.023.892 1.395 1.456 3.738 2.317" fill-opacity=".72" fill="#467FFF"/></g></svg>
