<svg width="2252" height="492" xmlns="http://www.w3.org/2000/svg"><defs><linearGradient x1="55.417%" y1="103.438%" x2="42.355%" y2="34.752%" id="a"><stop stop-color="#467FFF" stop-opacity=".32" offset="0%"/><stop stop-color="#467FFF" stop-opacity="0" offset="100%"/></linearGradient><linearGradient x1="0%" y1="50%" y2="50%" id="b"><stop stop-color="#29D2D3" offset="0%"/><stop stop-color="#29D2D3" stop-opacity="0" offset="100%"/></linearGradient><linearGradient x1="50%" y1="100%" x2="50%" y2="0%" id="c"><stop stop-color="#467FFF" offset="0%"/><stop stop-color="#467FFF" stop-opacity="0" offset="100%"/></linearGradient></defs><g fill="none" fill-rule="evenodd"><path d="M356.015 749.718c153.535 32.194 278-64.367 278-217.614 0-153.246-124.465-249.807-278-217.614-153.536 30.052-278 126.613-278 217.614s124.464 187.563 278 217.614z" fill="url(#a)" transform="rotate(-147 356.015 532.104)"/><path d="M548.51 708.586c88.918 18.7 161-37.39 161-126.407s-72.082-145.107-161-126.407c-88.918 17.457-161 73.547-161 126.407s72.082 108.95 161 126.407z" fill="url(#b)" transform="rotate(-12 548.51 582.18)"/><path d="M1472.291 50.521c7.595 2.365 14.731 6.175 20.96 11.125a65.293 65.293 0 0 1 15.589 17.903c4.038 6.851 6.834 14.446 8.085 22.31a66.11 66.11 0 0 1-.502 23.76c-1.605 7.804-4.722 15.288-9.067 21.978a65.483 65.483 0 0 1-16.404 17.278c-6.466 4.695-13.798 8.217-21.54 10.245-7.739 2.035-15.863 2.617-23.832 1.774-7.974-.827-15.767-3.215-22.881-6.899a65.623 65.623 0 0 1-18.868-14.696c-5.323-5.996-9.544-12.973-12.336-20.49-2.792-7.518-4.149-15.552-4.047-23.58a64.292 64.292 0 0 1 4.693-23.474 65.51 65.51 0 0 1 12.897-20.204 65.78 65.78 0 0 1 19.315-14.258A65.518 65.518 0 0 1 1447.537 47c1.76-.166 3.083-.287 3.967-.463.884-.18 1.33-.401 1.33-.61 0-.21-.448-.408-1.354-.544-.906-.139-2.272-.231-4.079-.071a68.071 68.071 0 0 0-23.779 6.24 68.623 68.623 0 0 0-20.06 14.391 68.44 68.44 0 0 0-13.716 20.671 68.182 68.182 0 0 0-3.831 11.91 68.966 68.966 0 0 0-1.554 12.455c-.289 8.384.937 16.859 3.706 24.853a69.17 69.17 0 0 0 12.572 21.977 69.839 69.839 0 0 0 19.777 16.117c7.534 4.115 15.87 6.858 24.453 7.927 8.575 1.082 17.373.626 25.829-1.44 8.456-2.057 16.52-5.763 23.659-10.79a71.015 71.015 0 0 0 18.203-18.69c4.853-7.29 8.354-15.506 10.195-24.094a71.865 71.865 0 0 0 .677-26.178c-1.365-8.682-4.439-17.086-8.919-24.63a70.893 70.893 0 0 0-17.262-19.636c-6.891-5.394-14.78-9.5-23.136-11.985-6.81-1.987-12.27-2.197-15.87-1.856-1.807.145-3.169.487-4.084.837-.916.35-1.386.731-1.424 1.119-.038.388.355.784 1.166 1.164.809.394 2.04.703 3.674 1.144 3.27.807 8.179 1.748 14.614 3.704" fill-opacity=".48" fill="url(#c)" transform="rotate(156 1454.42 112.42)"/><path d="M1536.28 167.097c1.367.534 2.538 1.61 3.23 2.967.697 1.354.878 2.983.546 4.483-.328 1.5-1.2 2.873-2.412 3.76a5.91 5.91 0 0 1-4.202 1.123c-1.477-.157-2.884-.937-3.879-2.115-1.005-1.174-1.577-2.742-1.584-4.341a6.8 6.8 0 0 1 1.575-4.396c1.009-1.212 2.45-2.021 3.989-2.222.867-.064.912-.601-.056-.57-1.677.147-3.305.96-4.489 2.263-1.188 1.294-1.932 3.072-1.992 4.919-.073 1.84.513 3.725 1.653 5.179 1.127 1.46 2.793 2.49 4.605 2.763a7.287 7.287 0 0 0 5.284-1.21c1.565-1.065 2.733-2.78 3.204-4.71.473-1.923.272-4.047-.625-5.83-.883-1.783-2.41-3.2-4.212-3.889-.87-.341-1.593-.31-2.046-.177-.46.155-.666.387-.666.63.013.529.775.863 2.076 1.373" fill-opacity=".32" fill="#29D2D3"/></g></svg>