<svg width="528" height="396" xmlns="http://www.w3.org/2000/svg"><defs><linearGradient x1="50%" y1="100%" x2="50%" y2="0%" id="a"><stop stop-color="#F6F7FF" offset="0%"/><stop stop-color="#F6F7FF" stop-opacity=".32" offset="100%"/></linearGradient><linearGradient x1="50%" y1="100%" x2="50%" y2="1.153%" id="b"><stop stop-color="#F6F7FF" offset="0%"/><stop stop-color="#F6F7FF" offset="100%"/></linearGradient><linearGradient x1="0%" y1="0%" y2="0%" id="c"><stop stop-color="#DEE1F7" stop-opacity=".48" offset="0%"/><stop stop-color="#DEE1F7" stop-opacity=".48" offset="100%"/></linearGradient></defs><g fill="none" fill-rule="evenodd"><rect width="528" height="396" rx="2" fill="#FFF"/><path d="M0 0h180v356H2a2 2 0 0 1-2-2V0z" fill="url(#a)" transform="translate(0 40)"/><path fill="url(#b)" opacity=".32" d="M285 112h138v64H285z" transform="translate(0 40)"/><path fill="url(#b)" opacity=".88" d="M366 24h138v64H366z" transform="translate(0 40)"/><path d="M2 0h524a2 2 0 0 1 2 2v38H0V2a2 2 0 0 1 2-2z" fill="url(#c)"/><circle fill-opacity=".64" fill="#A1A7CF" cx="24" cy="20" r="4"/><circle fill-opacity=".64" fill="#A1A7CF" cx="40" cy="20" r="4"/><circle fill-opacity=".64" fill="#A1A7CF" cx="56" cy="20" r="4"/><path d="M1 39h526a1 1 0 0 1 1 1H0a1 1 0 0 1 1-1z" fill="url(#c)"/></g></svg>