<svg width="2096" height="472" xmlns="http://www.w3.org/2000/svg"><defs><linearGradient x1="0%" y1="50%" x2="91.961%" y2="80.719%" id="a"><stop stop-color="#135CFF" offset="0%"/><stop stop-color="#467FFF" stop-opacity="0" offset="100%"/></linearGradient><linearGradient x1="50%" y1="100%" x2="50%" y2="0%" id="b"><stop stop-color="#29D2D3" offset="0%"/><stop stop-color="#29D2D3" stop-opacity="0" offset="100%"/></linearGradient><linearGradient x1="50%" y1="0%" x2="50%" y2="100%" id="c"><stop stop-color="#FFF" offset="0%"/><stop stop-color="#467FFF" stop-opacity="0" offset="100%"/></linearGradient></defs><g fill="none" fill-rule="evenodd"><path d="M1710.929 608.24c165.685 34.74 300-69.459 300-234.825 0-165.366-134.315-269.564-300-234.825-165.685 32.429-300 136.626-300 234.825 0 98.198 134.315 202.396 300 234.825z" fill="url(#a)" transform="rotate(37 2241.42 195.915)"/><path d="M1689.176 739.149c110.457 23.16 200-46.306 200-156.55 0-110.245-89.543-179.71-200-156.55-110.457 21.619-200 91.084-200 156.55 0 65.465 89.543 134.93 200 156.55z" fill="url(#b)" transform="rotate(-35 1126.218 405.099)"/><path d="M1619.871 694.101c7.595 2.365 14.731 6.175 20.96 11.125a65.293 65.293 0 0115.59 17.904c4.038 6.85 6.833 14.446 8.085 22.31a66.11 66.11 0 01-.502 23.759c-1.606 7.805-4.723 15.288-9.068 21.978a65.483 65.483 0 01-16.404 17.278c-6.466 4.695-13.798 8.217-21.54 10.245-7.738 2.036-15.863 2.618-23.832 1.775-7.974-.828-15.766-3.216-22.88-6.9a65.623 65.623 0 01-18.869-14.696c-5.323-5.996-9.544-12.972-12.336-20.49-2.791-7.518-4.148-15.552-4.047-23.58a64.292 64.292 0 014.694-23.473 65.51 65.51 0 0112.896-20.205 65.781 65.781 0 0119.315-14.258 65.518 65.518 0 0123.184-6.294c1.76-.166 3.083-.286 3.968-.463.883-.18 1.33-.4 1.33-.61 0-.21-.449-.407-1.355-.543-.906-.14-2.271-.232-4.078-.072a68.071 68.071 0 00-23.78 6.241 68.623 68.623 0 00-20.06 14.39 68.44 68.44 0 00-13.716 20.672 68.181 68.181 0 00-3.831 11.91 68.966 68.966 0 00-1.554 12.454c-.289 8.385.937 16.86 3.706 24.853a69.17 69.17 0 0012.572 21.977 69.839 69.839 0 0019.778 16.118c7.533 4.114 15.87 6.857 24.452 7.926 8.575 1.082 17.374.626 25.83-1.44 8.456-2.057 16.52-5.763 23.658-10.79a71.015 71.015 0 0018.204-18.69c4.853-7.29 8.354-15.506 10.195-24.094a71.864 71.864 0 00.676-26.178c-1.364-8.682-4.439-17.086-8.919-24.63a70.893 70.893 0 00-17.262-19.635c-6.89-5.395-14.779-9.501-23.135-11.985-6.81-1.988-12.272-2.198-15.87-1.857-1.807.146-3.17.487-4.085.838-.915.35-1.385.73-1.424 1.118-.038.388.355.784 1.166 1.164.809.394 2.04.703 3.674 1.144 3.27.807 8.18 1.749 14.614 3.704" fill-opacity=".48" fill="url(#c)" transform="translate(0 -355)"/></g></svg>