<svg width="360" height="360" xmlns="http://www.w3.org/2000/svg"><defs><linearGradient x1="17.753%" y1="79.967%" x2="82.54%" y2="10.805%" id="a"><stop stop-color="#467FFF" offset="0%"/><stop stop-color="#79A2FF" stop-opacity=".383" offset="100%"/></linearGradient></defs><g fill="none" fill-rule="evenodd"><path d="M52.703 270.54c2.462.9 4.57 2.716 5.814 5.006 1.255 2.284 1.582 5.034.984 7.565a10.727 10.727 0 01-4.342 6.344c-2.168 1.515-4.904 2.189-7.564 1.896-2.658-.265-5.19-1.581-6.981-3.569a11.012 11.012 0 01-2.852-7.326c-.031-2.698 1.011-5.382 2.835-7.419 1.816-2.045 4.411-3.41 7.18-3.748 1.561-.11 1.643-1.016-.1-.962a12.815 12.815 0 00-8.08 3.819c-2.14 2.183-3.478 5.184-3.586 8.3a12.907 12.907 0 002.975 8.739c2.028 2.463 5.028 4.201 8.288 4.663 3.244.492 6.71-.214 9.513-2.041 2.816-1.798 4.92-4.692 5.766-7.95.853-3.244.49-6.828-1.124-9.837-1.59-3.01-4.34-5.4-7.582-6.562-1.565-.577-2.868-.525-3.683-.299-.828.262-1.199.653-1.199 1.063.023.892 1.395 1.456 3.738 2.317" fill-opacity=".72" fill="#467FFF"/><path d="M257.826 231.155c38.66 9.575 70-29.173 70-86.547 0-57.373-31.34-96.122-70-86.546-38.66 9.575-70 48.323-70 86.546 0 38.223 31.34 76.972 70 86.547z" fill="url(#a)" opacity=".24" transform="rotate(-51 257.826 144.608)"/></g></svg>