<svg width="1440" height="637" xmlns="http://www.w3.org/2000/svg"><defs><linearGradient x1="100%" y1="50%" x2="0%" y2="50%" id="a"><stop stop-color="#79A2FF" offset="0%"/><stop stop-color="#467FFF" stop-opacity="0" offset="100%"/></linearGradient><linearGradient x1="100%" y1="50%" x2="0%" y2="50%" id="b"><stop stop-color="#29D2D3" offset="0%"/><stop stop-color="#29D2D3" stop-opacity="0" offset="100%"/></linearGradient><linearGradient x1="50%" y1="100%" x2="50%" y2="0%" id="c"><stop stop-color="#467FFF" offset="0%"/><stop stop-color="#467FFF" stop-opacity="0" offset="100%"/></linearGradient></defs><g fill="none" fill-rule="evenodd"><path d="M720 608.325c165.685 34.74 300-69.459 300-234.825 0-165.366-134.315-269.564-300-234.825C554.315 171.104 420 275.302 420 373.5c0 98.198 134.315 202.396 300 234.825z" fill="url(#a)" transform="rotate(37 818.627 340.5)"/><path d="M509.512 559.409c-6.062 3.173-11.895 8.869-13.03 12.72-1.133 3.853 3.135 3.474 9.535-.846 6.399-4.32 12.232-10.015 13.029-12.72.796-2.707-3.472-2.328-9.534.846z" fill-opacity=".48" fill="#467FFF"/><path d="M777.347 53.493c-4.62-9.21-13.222-17.91-19.213-19.433-5.99-1.523-5.657 5.077.745 14.74 6.402 9.664 15.004 18.364 19.213 19.434 4.208 1.07 3.875-5.53-.745-14.74z" fill-opacity=".48" fill="#29D2D3"/><path d="M909.176 409.149c110.457 23.16 200-46.306 200-156.55 0-110.245-89.543-179.71-200-156.55-110.457 21.619-200 91.084-200 156.55 0 65.465 89.543 134.93 200 156.55z" fill="url(#b)" transform="rotate(-35 804.514 219.599)"/><path d="M901.291 569.521c7.595 2.365 14.731 6.175 20.96 11.125a65.293 65.293 0 0115.589 17.903c4.038 6.851 6.834 14.446 8.085 22.31a66.11 66.11 0 01-.502 23.76c-1.605 7.804-4.722 15.288-9.067 21.978a65.483 65.483 0 01-16.404 17.278c-6.466 4.695-13.798 8.217-21.54 10.245-7.739 2.035-15.863 2.617-23.832 1.774-7.974-.827-15.767-3.215-22.881-6.899A65.623 65.623 0 01832.83 674.3c-5.323-5.996-9.544-12.973-12.336-20.49-2.792-7.518-4.149-15.552-4.047-23.58a64.292 64.292 0 014.693-23.474 65.51 65.51 0 0112.897-20.204 65.78 65.78 0 0119.315-14.258A65.518 65.518 0 01876.537 566c1.76-.166 3.083-.287 3.967-.463.884-.18 1.33-.401 1.33-.61 0-.21-.448-.408-1.354-.544-.906-.139-2.272-.231-4.079-.071a68.071 68.071 0 00-23.779 6.24 68.623 68.623 0 00-20.06 14.391 68.44 68.44 0 00-13.716 20.671 68.182 68.182 0 00-3.831 11.91 68.966 68.966 0 00-1.554 12.455c-.289 8.384.937 16.859 3.706 24.853a69.17 69.17 0 0012.572 21.977 69.839 69.839 0 0019.777 16.117c7.534 4.115 15.87 6.858 24.453 7.927 8.575 1.082 17.373.626 25.829-1.44 8.456-2.057 16.52-5.763 23.659-10.79a71.015 71.015 0 0018.203-18.69c4.853-7.29 8.354-15.506 10.195-24.094a71.864 71.864 0 00.677-26.178c-1.365-8.682-4.439-17.086-8.919-24.63a70.893 70.893 0 00-17.262-19.636c-6.891-5.394-14.78-9.5-23.136-11.985-6.81-1.987-12.27-2.197-15.87-1.856-1.807.145-3.169.487-4.084.837-.916.35-1.386.731-1.424 1.119-.038.388.355.784 1.166 1.164.809.394 2.04.703 3.674 1.144 3.27.807 8.179 1.748 14.614 3.704" fill-opacity=".48" fill="url(#c)" transform="rotate(156 890.434 598.42)"/></g></svg>