<svg width="1056" height="792" xmlns="http://www.w3.org/2000/svg"><defs><linearGradient x1="0%" y1="50%" y2="50%" id="a"><stop stop-color="#29D2D3" offset="0%"/><stop stop-color="#29D2D3" stop-opacity="0" offset="100%"/></linearGradient><linearGradient x1="91.961%" y1="80.719%" x2="0%" y2="50%" id="b"><stop stop-color="#135CFF" offset="0%"/><stop stop-color="#467FFF" stop-opacity="0" offset="100%"/></linearGradient></defs><g fill="none" fill-rule="evenodd"><path d="M742.645 688.112c60.751 15.234 110-46.411 110-137.688 0-91.276-49.249-152.921-110-137.688-60.752 15.234-110 76.879-110 137.688 0 60.81 49.248 122.454 110 137.688z" fill-opacity=".64" fill="url(#a)" transform="rotate(-48 742.645 550.424)"/><path d="M751.777 597.615c75.663 15.751 137-31.494 137-106.473 0-74.98-61.337-122.225-137-106.474-75.663 14.704-137 61.949-137 106.474 0 44.524 61.337 91.77 137 106.473z" fill="url(#b)" transform="rotate(139 751.777 491.142)"/><path d="M519.271 650.34c8.049-6.434 14.77-16.657 15.014-22.833.244-6.176-6.142-4.478-14.263 3.794-8.121 8.271-14.844 18.494-15.015 22.833-.17 4.339 6.215 2.64 14.264-3.794z" fill-opacity=".48" fill="#29D2D3"/></g></svg>