<svg width="360" height="360" xmlns="http://www.w3.org/2000/svg"><g fill="none" fill-rule="evenodd"><path d="M344.257 167.088c.966-.112.863-1.16-.11-1.073-8.83.746-17.817 1.282-26.775 2.567-8.941 1.28-17.852 3.32-26.093 6.945-3.348 1.49-2.112 5.134 1.382 3.837 16.601-6.069 33.963-10.324 51.596-12.276z" fill-opacity=".48" fill="#A1A7CF"/><path d="M341.877 103.261c.88-.818.17-1.596-.728-.795-8.166 7.25-16.77 14.18-25.1 21.46-8.326 7.275-16.377 14.897-23.327 23.403-2.818 3.461-.094 6.184 3.008 2.754 14.714-16.203 30.063-31.926 46.147-46.822z" fill="#29D2D3"/></g></svg>