<svg width="1056" height="792" xmlns="http://www.w3.org/2000/svg"><defs><linearGradient x1="0%" y1="50%" y2="50%" id="a"><stop stop-color="#29D2D3" offset="0%"/><stop stop-color="#29D2D3" stop-opacity="0" offset="100%"/></linearGradient><linearGradient x1="91.961%" y1="80.719%" x2="0%" y2="50%" id="b"><stop stop-color="#135CFF" offset="0%"/><stop stop-color="#467FFF" stop-opacity="0" offset="100%"/></linearGradient></defs><g fill="none" fill-rule="evenodd"><path d="M354 642.091c60.751 15.234 110-46.411 110-137.688 0-91.276-49.249-152.921-110-137.687-60.751 15.233-110 76.878-110 137.687 0 60.81 49.249 122.455 110 137.688z" fill-opacity=".64" fill="url(#a)" transform="rotate(-48 352.723 504.313)"/><path d="M738.589 456.973c75.663 15.752 137-31.493 137-106.473s-61.337-122.225-137-106.473c-75.663 14.703-137 61.948-137 106.473s61.337 91.77 137 106.473z" fill="url(#b)" transform="rotate(139 738.594 349.944)"/><path d="M835.068 443.216c-6.702 1.38-13.879 5.247-16.03 8.637-2.152 3.39 2.055 4.203 9.397 1.814 7.342-2.388 14.519-6.255 16.03-8.637 1.512-2.381-2.695-3.193-9.397-1.814z" fill-opacity=".48" fill="#467FFF"/><path d="M837.663 554.116c-6.434-8.049-16.656-14.771-22.833-15.015-6.176-.243-4.478 6.143 3.794 14.264 8.271 8.121 18.494 14.843 22.833 15.014 4.339.171 2.64-6.215-3.794-14.263z" fill-opacity=".48" fill="#29D2D3"/></g></svg>