<svg width="32" height="32" xmlns="http://www.w3.org/2000/svg"><defs><linearGradient x1="50%" y1="0%" x2="50%" y2="100%" id="a"><stop stop-color="#52DDDD" offset="0%"/><stop stop-color="#29D2D3" offset="100%"/></linearGradient><linearGradient x1="50%" y1="0%" x2="50%" y2="100%" id="b"><stop stop-color="#79A2FF" offset="0%"/><stop stop-color="#467FFF" offset="100%"/></linearGradient></defs><g fill="none" fill-rule="evenodd"><path d="M23.48 8.52A11.781 11.781 0 0 0 20 8C13.37 8 8 13.37 8 20c0 1.21.18 2.38.52 3.48A11.982 11.982 0 0 1 0 12C0 5.37 5.37 0 12 0c5.42 0 10 3.59 11.48 8.52" fill="url(#a)"/><path d="M32 20c0 6.63-5.37 12-12 12-5.42 0-10-3.59-11.48-8.52 1.1.34 2.27.52 3.48.52 6.63 0 12-5.37 12-12 0-1.21-.18-2.38-.52-3.48C28.41 10 32 14.58 32 20" fill="url(#b)"/></g></svg>